<svg width="121" height="120" viewBox="0 0 121 120" fill="none" xmlns="http://www.w3.org/2000/svg">
<g opacity="0.1">
<path d="M31.9287 94.286C31.9287 82.4513 43.4414 72.8574 57.643 72.8574C71.8446 72.8574 83.3573 82.4513 83.3573 94.286" stroke="#788AB4" stroke-width="4" stroke-linecap="round" stroke-linejoin="round"/>
<path d="M90.8594 66.9644C99.5983 69.6936 105.859 77.0578 105.859 85.7142" stroke="#788AB4" stroke-width="4" stroke-linecap="round" stroke-linejoin="round"/>
<path d="M83.3594 55.7141C91.6436 55.7141 98.3593 48.9985 98.3593 40.7142C98.3593 32.43 91.6436 25.7144 83.3594 25.7144" stroke="#788AB4" stroke-width="4" stroke-linecap="round" stroke-linejoin="round"/>
<path d="M25.498 66.2515C16.7592 68.9807 10.4981 76.345 10.4981 85.0013" stroke="#788AB4" stroke-width="4" stroke-linecap="round" stroke-linejoin="round"/>
<path d="M32.998 55.0012C24.7138 55.0012 17.9982 48.2856 17.9982 40.0014C17.9982 31.7171 24.7138 25.0015 32.998 25.0015" stroke="#788AB4" stroke-width="4" stroke-linecap="round" stroke-linejoin="round"/>
<path d="M57.6429 60.0001C67.1106 60.0001 74.7857 52.325 74.7857 42.8572C74.7857 33.3895 67.1106 25.7144 57.6429 25.7144C48.1751 25.7144 40.5 33.3895 40.5 42.8572C40.5 52.325 48.1751 60.0001 57.6429 60.0001Z" stroke="#788AB4" stroke-width="4" stroke-linecap="round" stroke-linejoin="round"/>
</g>
</svg>
