<svg width="16" height="16" viewBox="0 0 16 16" fill="none" xmlns="http://www.w3.org/2000/svg">
<path d="M13.744 4.32L13.7533 4.30867L11.0867 2.14867L10.2467 3.18467L11.6247 4.30067C11.2832 4.50813 11.0119 4.81343 10.8461 5.17695C10.6803 5.54048 10.6275 5.94545 10.6947 6.33933C10.794 6.93867 11.2053 7.45667 11.738 7.74733C12.336 8.074 12.8613 8.04467 13.3273 7.87867L13.3173 12C13.3181 12.1104 13.2914 12.2192 13.2396 12.3167C13.1877 12.4142 13.1124 12.4972 13.0204 12.5582C12.9284 12.6192 12.8226 12.6563 12.7127 12.6662C12.6027 12.676 12.4921 12.6583 12.3907 12.6147C12.3113 12.5807 12.2392 12.5316 12.1787 12.47C12.117 12.4082 12.0682 12.335 12.0349 12.2543C12.0016 12.1737 11.9845 12.0872 11.9847 12L12 10.6667C12.0007 10.4043 11.9494 10.1443 11.849 9.90184C11.7486 9.65937 11.6013 9.43919 11.4153 9.254C11.2296 9.06787 11.009 8.92019 10.7661 8.81941C10.5233 8.71863 10.2629 8.66672 10 8.66667H9.33333V3.33333C9.33333 2.598 8.73533 2 8 2H3.33333C2.598 2 2 2.598 2 3.33333V12.6667C2 13.402 2.598 14 3.33333 14H8C8.73533 14 9.33333 13.402 9.33333 12.6667V10H10C10.0907 10 10.178 10.018 10.2607 10.052C10.4193 10.1215 10.5458 10.2484 10.6147 10.4073C10.6493 10.4894 10.6669 10.5776 10.6667 10.6667L10.6507 12C10.6507 12.2707 10.7033 12.5327 10.808 12.7787C10.9087 13.018 11.0533 13.232 11.2353 13.4127C11.4204 13.5997 11.6409 13.748 11.8839 13.8488C12.1269 13.9496 12.3876 14.001 12.6507 14C12.9213 14 13.1827 13.948 13.4293 13.8427C13.668 13.7427 13.8827 13.598 14.0633 13.4153C14.25 13.23 14.398 13.0095 14.4988 12.7665C14.5996 12.5236 14.6512 12.263 14.6507 12L14.6667 6C14.666 5.66508 14.5812 5.3357 14.4199 5.04214C14.2587 4.74858 14.0263 4.50026 13.744 4.32ZM3.33333 3.33333H8L8.00067 6H3.33333V3.33333ZM3.33333 12.6667V7.33333H8.00067L8.00133 12.6667H3.33333ZM12.6667 6.66667C12.4899 6.66667 12.3203 6.59643 12.1953 6.4714C12.0702 6.34638 12 6.17681 12 6C12 5.82319 12.0702 5.65362 12.1953 5.5286C12.3203 5.40357 12.4899 5.33333 12.6667 5.33333C12.8435 5.33333 13.013 5.40357 13.1381 5.5286C13.2631 5.65362 13.3333 5.82319 13.3333 6C13.3333 6.17681 13.2631 6.34638 13.1381 6.4714C13.013 6.59643 12.8435 6.66667 12.6667 6.66667Z" fill="#E4F2FF"/>
</svg>
