<svg width="112" height="86" viewBox="0 0 112 86" fill="none"
     xmlns="http://www.w3.org/2000/svg">
    <g id="Component 1" opacity="0.1">
        <path id="Vector"
              d="M20.3628 0.325274C20.7221 0.624735 25.813 5.41613 31.7424 10.9861C50.5486 28.6544 51.0876 29.1336 54.5015 30.0918C59.7721 31.649 62.5271 30.2116 72.4094 20.8085C75.404 17.9337 81.5729 12.184 86.0649 7.93162C90.6167 3.67925 94.2701 0.145596 94.1503 0.0857029C94.0905 -0.0340824 89.6584 1.22366 84.328 2.72097L74.6853 5.59581L68.2768 11.5252C62.1079 17.3347 58.9935 19.6106 57.3165 19.6106C55.5197 19.6106 52.4053 17.3347 46.2962 11.5851L39.8278 5.59581L31.2632 3.02043C20.6024 -0.0939751 19.5842 -0.393436 20.3628 0.325274Z"
              fill="url(#paint0_linear_1049_79130)"/>
        <path id="Vector_2"
              d="M22.4597 35.1815C16.0512 35.4211 8.38495 35.6607 5.39033 35.7206L0 35.8403L8.68441 40.3323L17.3688 44.8242L26.9516 44.6445C37.6724 44.4649 40.0681 44.944 40.7269 47.5793C40.9066 48.4777 41.0264 53.5086 40.9665 58.7792L40.8467 68.4219L45.3386 76.9865L49.8306 85.4912L50.1899 70.6978C50.8487 46.6809 50.729 42.4285 49.4712 39.6136C47.3151 34.8821 44.021 34.343 22.4597 35.1815Z"
              fill="url(#paint1_linear_1049_79130)"/>
        <path id="Vector_3"
              d="M68.7576 35.1219C65.4635 35.9604 63.0079 37.7572 62.2293 39.9732C61.3908 42.309 61.271 55.1859 61.9298 74.2317L62.2892 85.4316L66.7212 76.8071L71.1533 68.1227L71.0335 58.6597C70.9736 53.449 71.0934 48.478 71.2731 47.6395C71.9918 44.8844 74.7468 44.2855 85.0483 44.6448L94.0921 44.8844L103.016 40.3925L112 35.9604L98.8236 35.5412C91.5766 35.3615 82.2933 35.062 78.1607 34.8824C74.0281 34.7626 69.8356 34.8824 68.7576 35.1219Z"
              fill="url(#paint2_linear_1049_79130)"/>
    </g>
    <defs>
        <linearGradient id="paint0_linear_1049_79130" x1="20.1592"
                        y1="0.000443751" x2="42.4983" y2="60.2309"
                        gradientUnits="userSpaceOnUse">
            <stop stop-color="#2680EB"/>
            <stop offset="1" stop-color="#7FFFD4"/>
        </linearGradient>
        <linearGradient id="paint1_linear_1049_79130" x1="1.218e-06"
                        y1="34.8547" x2="56.2978" y2="97.6261"
                        gradientUnits="userSpaceOnUse">
            <stop stop-color="#2680EB"/>
            <stop offset="1" stop-color="#7FFFD4"/>
        </linearGradient>
        <linearGradient id="paint2_linear_1049_79130" x1="61.5071" y1="34.8354"
                        x2="117.766" y2="97.5004"
                        gradientUnits="userSpaceOnUse">
            <stop stop-color="#2680EB"/>
            <stop offset="1" stop-color="#7FFFD4"/>
        </linearGradient>
    </defs>
</svg>
